# xmcd CD database file
#
# Track frame offsets:
#	183
#	31558
#	80370
#	128633
#	159570
#	213770
#	240183
#
# Disc length: 3800 seconds
#
# Revision: 0
# Processed by: cddbd v1.5.1PL0 Copyright (c) Steve Scherf et al.
# Submitted via: CDex 1.51
#
DISCID=410ed607
DTITLE=Giovanni Moltoni - Directions
DYEAR=1995
DGENRE=Jazz
TTITLE0=Over and More
TTITLE1=Passing by
TTITLE2=Afternoon ride
TTITLE3=Fe-Fe Blues
TTITLE4=Wolf dance
TTITLE5=After all
TTITLE6=Opening ties
EXTD=YEAR: 1995
EXTT0=
EXTT1=
EXTT2=
EXTT3=
EXTT4=
EXTT5=
EXTT6=
PLAYORDER=
